# xmcd CD database file
#
# Track frame offsets:
#	150
#	19072
#	36239
#	49816
#	73489
#	86337
#	105745
#	117756
#	135571
#	151038
#	167746
#	180648
#	197032
#	207937
#	224024
#	237277
#	252609
#	268265
#
# Disc length: 3795 seconds
#
# Revision: 0
# Processed by: cddbd v1.4PL0 Copyright (c) Steve Scherf et al.
# Submitted via: CDex 1.50Beta7
#
DISCID=0c0ed112
DTITLE=Sula Miranda - Os Grandes Sucessos de
DYEAR=2001
DGENRE=Country
TTITLE0=Caminhoneiro do Amor
TTITLE1=Estrada a Fora
TTITLE2=Com o Pé na estrada
TTITLE3=Lobo Amante
TTITLE4=Novamente na Estrada
TTITLE5=Rumo Certo
TTITLE6=Seu Olhar
TTITLE7=No Asfalto da Cama
TTITLE8=Anuncio de Jornal
TTITLE9=Only Yesterday
TTITLE10=Carona
TTITLE11=Me Liga, Me Grita, Me Chama
TTITLE12=A Caroneira
TTITLE13=Pingos de Amor
TTITLE14=Filme Triste
TTITLE15=A Voz do Rádio
TTITLE16=Fogueira
TTITLE17=Coisinha Linda
EXTD=YEAR: 2001
EXTT0=
EXTT1=
EXTT2=
EXTT3=
EXTT4=
EXTT5=
EXTT6=
EXTT7=
EXTT8=
EXTT9=
EXTT10=
EXTT11=
EXTT12=
EXTT13=
EXTT14=
EXTT15=
EXTT16=
EXTT17=
PLAYORDER=
